<svg width="24" height="24" viewBox="0 0 852 180" fill="none" xmlns="http://www.w3.org/2000/svg">
<g clip-path="url(#clip0_3195_70)">
<path d="M0 4.79648C8.22054 2.94081 20.9403 1.85571 32.4144 1.85571C63.4253 1.85571 82.0477 12.0671 82.0477 38.0518C82.0477 53.9822 75.2148 64.5029 64.5239 70.2272L90.4049 111.99C88.3865 113.385 84.045 114.155 77.9952 114.155C71.1623 114.155 66.6736 113.385 63.4148 111.99L41.8648 75.7942H39.4207C34.1646 75.7942 27.1688 75.3277 23.4475 74.7091V112.142C21.2767 113.379 17.3977 114.155 11.8157 114.155C6.38616 114.155 2.35473 113.385 0.0315366 112.142L0 4.79648ZM23.2635 22.7399V55.0673C27.6727 55.7941 32.1345 56.1571 36.6035 56.1524C50.0959 56.1524 58.3427 51.3717 58.3427 39.3151C58.3427 26.9387 49.6596 21.8382 34.1646 21.8382C30.5113 21.8152 26.8631 22.117 23.2635 22.7399V22.7399Z" fill="#F25A5A"/>
<path d="M120.365 82.2995C121.295 93.1294 129.048 98.3872 144.406 98.3872C154.335 98.3872 163.018 96.2222 168.584 93.748C169.047 99.6243 166.566 107.204 163.002 111.225C157.883 114.166 149.2 116.64 138.498 116.64C111.356 116.64 96.9331 101.019 96.9331 75.9566C96.9331 50.124 112.444 33.4177 136.795 33.4177C159.439 33.4177 169.83 47.3405 169.83 67.7581C169.814 72.6959 169.031 77.6014 167.507 82.2995H120.365ZM148.748 66.0492C149.988 58.008 147.039 50.1188 135.876 50.1188C126.257 50.1188 120.365 56.3043 119.745 66.0492H148.748Z" fill="#F25A5A"/>
<path d="M217.918 96.8303C218.996 90.0907 220.499 83.4254 222.417 76.874L234.201 36.9666C235.909 36.3481 238.543 35.5723 243.51 35.5723C249.87 35.5723 254.211 36.8094 257.002 38.665L232.498 111.99C224.278 114.312 212.798 115.083 201.787 115.083L176.353 38.6703C179.144 36.8146 183.485 35.5775 190.019 35.5775C194.67 35.5775 197.903 36.3481 199.327 36.9719L211.889 76.8793C213.928 83.4193 215.535 90.0858 216.698 96.8356L217.918 96.8303Z" fill="#F25A5A"/>
<path d="M285.853 82.2995C286.783 93.1294 294.536 98.3872 309.894 98.3872C319.823 98.3872 328.506 96.2222 334.072 93.748C334.535 99.6243 332.054 107.204 328.49 111.225C323.371 114.166 314.688 116.64 303.986 116.64C276.844 116.64 262.421 101.019 262.421 75.9566C262.421 50.124 277.932 33.4177 302.283 33.4177C324.927 33.4177 335.318 47.3405 335.318 67.7581C335.305 72.6953 334.525 77.6007 333.005 82.2995H285.853ZM314.236 66.0492C315.476 58.008 312.527 50.1188 301.364 50.1188C291.745 50.1188 285.853 56.3043 285.233 66.0492H314.236Z" fill="#F25A5A"/>
<path d="M375.191 112.3C373.173 113.385 369.451 114.155 364.022 114.155C358.592 114.155 354.871 113.385 352.7 112.3V38.5183C356.905 36.1961 363.559 34.959 371.002 34.959L372.242 47.6446H373.483C377.204 39.6034 385.114 33.4126 399.238 33.4126C411.027 33.4126 424.993 37.6062 424.993 63.1138V112.305C422.974 113.39 419.253 114.16 413.823 114.16C408.394 114.16 404.672 113.39 402.502 112.305V67.1344C402.502 59.0932 399.711 53.9875 390.56 53.9875C382.497 53.9875 377.998 58.0081 375.207 62.8045L375.191 112.3Z" fill="#F25A5A"/>
<path d="M495.24 104.258C491.829 111.22 484.539 116.635 470.888 116.635C458.799 116.635 445.134 112.441 445.134 86.7552V39.5772C450.39 36.6364 457.853 34.938 467.624 34.938V82.8919C467.624 91.2424 470.252 95.8868 479.256 95.8868C486.546 95.8868 491.345 92.794 494.147 89.2347V37.7425C496.318 36.6574 500.039 35.8868 505.468 35.8868C510.898 35.8868 514.619 36.6626 516.638 37.7425V111.529C512.606 113.851 506.246 115.088 499.114 115.088L496.486 104.258H495.24Z" fill="#F25A5A"/>
<path d="M556.968 82.2995C557.898 93.1294 565.651 98.3872 581.009 98.3872C590.938 98.3872 599.621 96.2222 605.187 93.748C605.65 99.6243 603.169 107.204 599.605 111.225C594.486 114.166 585.803 116.64 575.101 116.64C547.959 116.64 533.536 101.019 533.536 75.9566C533.536 50.124 549.047 33.4177 573.398 33.4177C596.041 33.4177 606.433 47.3405 606.433 67.7581C606.415 72.6962 605.63 77.6016 604.104 82.2995H556.968ZM585.351 66.0492C586.591 58.008 583.642 50.1188 572.478 50.1188C562.86 50.1188 556.968 56.3043 556.348 66.0492H585.351Z" fill="#F25A5A"/>
<path d="M681.516 20.5749C659.645 20.5749 644.602 31.7141 644.602 58.6266C644.602 85.539 659.493 96.217 680.428 96.217C689.367 96.1311 698.209 94.3522 706.482 90.975C706.792 96.6993 704.001 106.596 700.28 111.55C693.61 114.8 683.986 117.117 673.138 117.117C639.946 117.117 620.403 95.7714 620.403 60.1939C620.409 21.812 643.204 0 676.707 0C685.547 0 694.54 1.5726 700.28 4.94845C703.849 10.0542 705.4 19.1805 704.622 25.9846C697.179 22.4305 690.357 20.5749 681.516 20.5749Z" fill="#F25A5A"/>
<path d="M761.55 105.495C758.139 112.31 750.849 116.635 740.148 116.635C726.482 116.635 714.714 109.82 714.714 91.8871C714.714 73.0159 728.379 65.7453 746.355 65.7453C751.135 65.6865 755.896 66.3655 760.468 67.7582V65.5933C760.468 56.1576 755.816 52.7556 745.577 52.7556C736.883 52.7497 728.334 54.9813 720.758 59.2347C718.897 53.2012 719.67 43.6135 723.239 38.5078C728.826 35.415 738.44 33.4021 749.919 33.4021C772.252 33.4021 782.953 41.2651 782.953 64.1832V90.9436C782.953 95.74 785.124 96.8199 788.209 96.8199C790.566 96.8617 792.884 96.2168 794.879 94.9642C795.499 101.15 793.639 108.73 790.848 113.06C787.589 115.225 783.248 116.619 777.976 116.619C768.983 116.619 764.31 112.75 762.775 105.48L761.55 105.495ZM760.93 82.6036C757.668 81.3367 754.192 80.7068 750.691 80.7479C741.698 80.7479 737.199 84.4592 737.199 90.3408C737.199 96.3743 741.698 98.5393 747.9 98.5393C752.862 98.5393 757.829 96.9666 760.93 93.1243V82.6036Z" fill="#F25A5A"/>
<path d="M830.138 55.5654H850.842C851.777 53.6992 852.245 49.7992 852.245 45.9148C852.245 42.0305 851.777 38.1357 850.842 36.2643H830.138V13.2205C821.418 13.3777 813.171 15.4011 807.563 19.4427V36.2486H798.691C796.667 41.2285 795.579 48.8294 795.579 55.5444H807.568L807.263 110.219C807.263 116.242 806.212 123.942 802.759 126.359C786.323 137.959 752.894 132.345 722.22 129.163C678.152 124.592 640.093 118.585 633.77 142.902C630.427 155.751 634.769 163.96 638.989 168.588C647.478 177.882 662.458 180 674.347 180C679.937 179.994 685.518 179.558 691.04 178.695C693.852 178.239 696.367 176.689 698.032 174.385C699.698 172.081 700.378 169.212 699.923 166.408C698.977 160.568 693.432 156.448 687.608 157.528C675.388 159.803 658.137 164.866 651.52 157.617C649.281 155.169 649.67 149.156 651.52 147.295C656.439 139.956 688.107 142.761 719.991 147.054C755.207 150.724 791.668 155.866 812.372 145.539C820.477 141.498 830.138 132.088 830.138 110.219V55.5654Z" fill="#F25A5A"/>
</g>
<defs>
<clipPath id="clip0_3195_70">
<rect width="852" height="180" fill="white"/>
</clipPath>
</defs>
</svg>